<?xml version="1.0" encoding="UTF-8" standalone="no"?>
<!DOCTYPE svg PUBLIC "-//W3C//DTD SVG 1.1//EN"
 "http://www.w3.org/Graphics/SVG/1.1/DTD/svg11.dtd">
<!-- Generated by graphviz version 2.50.0 (20211209.0339)
 -->
<!-- Title: snakemake_dag Pages: 1 -->
<svg width="716pt" height="548pt"
 viewBox="0.00 0.00 715.50 548.00" xmlns="http://www.w3.org/2000/svg" xmlns:xlink="http://www.w3.org/1999/xlink">
<g id="graph0" class="graph" transform="scale(1 1) rotate(0) translate(4 544)">
<title>snakemake_dag</title>
<polygon fill="white" stroke="transparent" points="-4,4 -4,-544 711.5,-544 711.5,4 -4,4"/>
<!-- 0 -->
<g id="node1" class="node">
<title>0</title>
<path fill="none" stroke="#80d856" stroke-width="2" d="M373,-36C373,-36 302,-36 302,-36 296,-36 290,-30 290,-24 290,-24 290,-12 290,-12 290,-6 296,0 302,0 302,0 373,0 373,0 379,0 385,-6 385,-12 385,-12 385,-24 385,-24 385,-30 379,-36 373,-36"/>
<text text-anchor="middle" x="337.5" y="-15.5" font-family="sans" font-size="10.00">make_summary</text>
</g>
<!-- 1 -->
<g id="node2" class="node">
<title>1</title>
<path fill="none" stroke="#56d882" stroke-width="2" d="M83,-108C83,-108 12,-108 12,-108 6,-108 0,-102 0,-96 0,-96 0,-84 0,-84 0,-78 6,-72 12,-72 12,-72 83,-72 83,-72 89,-72 95,-78 95,-84 95,-84 95,-96 95,-96 95,-102 89,-108 83,-108"/>
<text text-anchor="middle" x="47.5" y="-87.5" font-family="sans" font-size="10.00">make_rulegraph</text>
</g>
<!-- 1&#45;&gt;0 -->
<g id="edge6" class="edge">
<title>1&#45;&gt;0</title>
<path fill="none" stroke="grey" stroke-width="2" d="M95.18,-75.72C100.01,-74.44 104.85,-73.18 109.5,-72 167.31,-57.36 233.75,-42.09 279.94,-31.72"/>
<polygon fill="grey" stroke="grey" stroke-width="2" points="280.78,-35.12 289.77,-29.52 279.25,-28.29 280.78,-35.12"/>
</g>
<!-- 2 -->
<g id="node3" class="node">
<title>2</title>
<path fill="none" stroke="#56d8d8" stroke-width="2" d="M372,-540C372,-540 251,-540 251,-540 245,-540 239,-534 239,-528 239,-528 239,-516 239,-516 239,-510 245,-504 251,-504 251,-504 372,-504 372,-504 378,-504 384,-510 384,-516 384,-516 384,-528 384,-528 384,-534 378,-540 372,-540"/>
<text text-anchor="middle" x="311.5" y="-519.5" font-family="sans" font-size="10.00">build_codon_variant_table</text>
</g>
<!-- 2&#45;&gt;0 -->
<g id="edge7" class="edge">
<title>2&#45;&gt;0</title>
<path fill="none" stroke="grey" stroke-width="2" d="M252.79,-503.96C197.63,-483.92 123.5,-444.75 123.5,-379 123.5,-379 123.5,-379 123.5,-161 123.5,-114.96 140.58,-100.8 176.5,-72 206.15,-48.23 246.85,-34.95 279.92,-27.63"/>
<polygon fill="grey" stroke="grey" stroke-width="2" points="280.84,-31.02 289.91,-25.55 279.41,-24.16 280.84,-31.02"/>
</g>
<!-- 3 -->
<g id="node4" class="node">
<title>3</title>
<path fill="none" stroke="#59d856" stroke-width="2" d="M309,-396C309,-396 190,-396 190,-396 184,-396 178,-390 178,-384 178,-384 178,-372 178,-372 178,-366 184,-360 190,-360 190,-360 309,-360 309,-360 315,-360 321,-366 321,-372 321,-372 321,-384 321,-384 321,-390 315,-396 309,-396"/>
<text text-anchor="middle" x="249.5" y="-375.5" font-family="sans" font-size="10.00">aggregate_variant_counts</text>
</g>
<!-- 2&#45;&gt;3 -->
<g id="edge11" class="edge">
<title>2&#45;&gt;3</title>
<path fill="none" stroke="grey" stroke-width="2" d="M287.4,-503.85C276.33,-494.57 264.19,-482.13 257.5,-468 248.4,-448.78 246.75,-424.62 247.18,-406.32"/>
<polygon fill="grey" stroke="grey" stroke-width="2" points="250.68,-406.46 247.64,-396.31 243.69,-406.14 250.68,-406.46"/>
</g>
<!-- 4 -->
<g id="node5" class="node">
<title>4</title>
<path fill="none" stroke="#afd856" stroke-width="2" d="M344,-468C344,-468 279,-468 279,-468 273,-468 267,-462 267,-456 267,-456 267,-444 267,-444 267,-438 273,-432 279,-432 279,-432 344,-432 344,-432 350,-432 356,-438 356,-444 356,-444 356,-456 356,-456 356,-462 350,-468 344,-468"/>
<text text-anchor="middle" x="311.5" y="-447.5" font-family="sans" font-size="10.00">count_variants</text>
</g>
<!-- 2&#45;&gt;4 -->
<g id="edge12" class="edge">
<title>2&#45;&gt;4</title>
<path fill="none" stroke="grey" stroke-width="2" d="M311.5,-503.7C311.5,-495.98 311.5,-486.71 311.5,-478.11"/>
<polygon fill="grey" stroke="grey" stroke-width="2" points="315,-478.1 311.5,-468.1 308,-478.1 315,-478.1"/>
</g>
<!-- 6 -->
<g id="node7" class="node">
<title>6</title>
<path fill="none" stroke="#d88556" stroke-width="2" d="M423,-324C423,-324 346,-324 346,-324 340,-324 334,-318 334,-312 334,-312 334,-300 334,-300 334,-294 340,-288 346,-288 346,-288 423,-288 423,-288 429,-288 435,-294 435,-300 435,-300 435,-312 435,-312 435,-318 429,-324 423,-324"/>
<text text-anchor="middle" x="384.5" y="-303.5" font-family="sans" font-size="10.00">counts_to_scores</text>
</g>
<!-- 2&#45;&gt;6 -->
<g id="edge15" class="edge">
<title>2&#45;&gt;6</title>
<path fill="none" stroke="grey" stroke-width="2" d="M334.68,-503.9C345.57,-494.55 357.64,-482.03 364.5,-468 385.5,-425.03 387.44,-368.23 386.37,-334.85"/>
<polygon fill="grey" stroke="grey" stroke-width="2" points="389.85,-334.32 385.91,-324.48 382.85,-334.63 389.85,-334.32"/>
</g>
<!-- 8 -->
<g id="node9" class="node">
<title>8</title>
<path fill="none" stroke="#d8ac56" stroke-width="2" d="M695.5,-180C695.5,-180 627.5,-180 627.5,-180 621.5,-180 615.5,-174 615.5,-168 615.5,-168 615.5,-156 615.5,-156 615.5,-150 621.5,-144 627.5,-144 627.5,-144 695.5,-144 695.5,-144 701.5,-144 707.5,-150 707.5,-156 707.5,-156 707.5,-168 707.5,-168 707.5,-174 701.5,-180 695.5,-180"/>
<text text-anchor="middle" x="661.5" y="-159.5" font-family="sans" font-size="10.00">escape_profiles</text>
</g>
<!-- 2&#45;&gt;8 -->
<g id="edge19" class="edge">
<title>2&#45;&gt;8</title>
<path fill="none" stroke="grey" stroke-width="2" d="M384.01,-507.02C487.05,-485.06 663.5,-438.72 663.5,-379 663.5,-379 663.5,-379 663.5,-305 663.5,-264.99 662.7,-218.65 662.11,-190.08"/>
<polygon fill="grey" stroke="grey" stroke-width="2" points="665.61,-189.97 661.9,-180.05 658.61,-190.12 665.61,-189.97"/>
</g>
<!-- 3&#45;&gt;0 -->
<g id="edge5" class="edge">
<title>3&#45;&gt;0</title>
<path fill="none" stroke="grey" stroke-width="2" d="M229.97,-359.86C204.04,-335.11 161.5,-286.63 161.5,-235 161.5,-235 161.5,-235 161.5,-161 161.5,-98.72 229.08,-59.1 280.48,-37.97"/>
<polygon fill="grey" stroke="grey" stroke-width="2" points="281.87,-41.19 289.87,-34.24 279.29,-34.68 281.87,-41.19"/>
</g>
<!-- 5 -->
<g id="node6" class="node">
<title>5</title>
<path fill="none" stroke="#5682d8" stroke-width="2" d="M297,-180C297,-180 202,-180 202,-180 196,-180 190,-174 190,-168 190,-168 190,-156 190,-156 190,-150 196,-144 202,-144 202,-144 297,-144 297,-144 303,-144 309,-150 309,-156 309,-156 309,-168 309,-168 309,-174 303,-180 297,-180"/>
<text text-anchor="middle" x="249.5" y="-159.5" font-family="sans" font-size="10.00">counts_to_cells_ratio</text>
</g>
<!-- 3&#45;&gt;5 -->
<g id="edge13" class="edge">
<title>3&#45;&gt;5</title>
<path fill="none" stroke="grey" stroke-width="2" d="M249.5,-359.85C249.5,-322.83 249.5,-235.18 249.5,-190.39"/>
<polygon fill="grey" stroke="grey" stroke-width="2" points="253,-190.23 249.5,-180.23 246,-190.23 253,-190.23"/>
</g>
<!-- 3&#45;&gt;6 -->
<g id="edge14" class="edge">
<title>3&#45;&gt;6</title>
<path fill="none" stroke="grey" stroke-width="2" d="M282.52,-359.88C300.58,-350.51 323.15,-338.81 342.45,-328.8"/>
<polygon fill="grey" stroke="grey" stroke-width="2" points="344.08,-331.9 351.35,-324.19 340.86,-325.69 344.08,-331.9"/>
</g>
<!-- 4&#45;&gt;3 -->
<g id="edge10" class="edge">
<title>4&#45;&gt;3</title>
<path fill="none" stroke="grey" stroke-width="2" d="M296.17,-431.7C288.74,-423.3 279.68,-413.07 271.52,-403.86"/>
<polygon fill="grey" stroke="grey" stroke-width="2" points="273.9,-401.27 264.65,-396.1 268.66,-405.91 273.9,-401.27"/>
</g>
<!-- 5&#45;&gt;0 -->
<g id="edge9" class="edge">
<title>5&#45;&gt;0</title>
<path fill="none" stroke="grey" stroke-width="2" d="M260.11,-143.87C275.38,-119.24 303.64,-73.64 321.46,-44.88"/>
<polygon fill="grey" stroke="grey" stroke-width="2" points="324.55,-46.53 326.85,-36.19 318.6,-42.85 324.55,-46.53"/>
</g>
<!-- 6&#45;&gt;0 -->
<g id="edge2" class="edge">
<title>6&#45;&gt;0</title>
<path fill="none" stroke="grey" stroke-width="2" d="M351.14,-287.86C337.79,-279.09 323.86,-267.06 316.5,-252 309.48,-237.62 315.65,-231.98 316.5,-216 319.73,-155.2 328.54,-84.28 333.66,-46.32"/>
<polygon fill="grey" stroke="grey" stroke-width="2" points="337.17,-46.46 335.06,-36.08 330.24,-45.51 337.17,-46.46"/>
</g>
<!-- 7 -->
<g id="node8" class="node">
<title>7</title>
<path fill="none" stroke="#d6d856" stroke-width="2" d="M547.5,-252C547.5,-252 433.5,-252 433.5,-252 427.5,-252 421.5,-246 421.5,-240 421.5,-240 421.5,-228 421.5,-228 421.5,-222 427.5,-216 433.5,-216 433.5,-216 547.5,-216 547.5,-216 553.5,-216 559.5,-222 559.5,-228 559.5,-228 559.5,-240 559.5,-240 559.5,-246 553.5,-252 547.5,-252"/>
<text text-anchor="middle" x="490.5" y="-231.5" font-family="sans" font-size="10.00">call_strong_escape_sites</text>
</g>
<!-- 6&#45;&gt;7 -->
<g id="edge16" class="edge">
<title>6&#45;&gt;7</title>
<path fill="none" stroke="grey" stroke-width="2" d="M410.43,-287.88C424.16,-278.81 441.21,-267.55 456.04,-257.76"/>
<polygon fill="grey" stroke="grey" stroke-width="2" points="458.05,-260.62 464.47,-252.19 454.2,-254.78 458.05,-260.62"/>
</g>
<!-- 6&#45;&gt;8 -->
<g id="edge18" class="edge">
<title>6&#45;&gt;8</title>
<path fill="none" stroke="grey" stroke-width="2" d="M435.24,-302.89C482.14,-298.7 551.86,-286.59 601.5,-252 623.84,-236.44 640.22,-209.65 650.17,-189.52"/>
<polygon fill="grey" stroke="grey" stroke-width="2" points="653.44,-190.79 654.54,-180.25 647.11,-187.81 653.44,-190.79"/>
</g>
<!-- 9 -->
<g id="node10" class="node">
<title>9</title>
<path fill="none" stroke="#d85656" stroke-width="2" d="M391,-252C391,-252 338,-252 338,-252 332,-252 326,-246 326,-240 326,-240 326,-228 326,-228 326,-222 332,-216 338,-216 338,-216 391,-216 391,-216 397,-216 403,-222 403,-228 403,-228 403,-240 403,-240 403,-246 397,-252 391,-252"/>
<text text-anchor="middle" x="364.5" y="-231.5" font-family="sans" font-size="10.00">output_pdbs</text>
</g>
<!-- 6&#45;&gt;9 -->
<g id="edge20" class="edge">
<title>6&#45;&gt;9</title>
<path fill="none" stroke="grey" stroke-width="2" d="M379.56,-287.7C377.33,-279.9 374.65,-270.51 372.17,-261.83"/>
<polygon fill="grey" stroke="grey" stroke-width="2" points="375.5,-260.76 369.39,-252.1 368.77,-262.68 375.5,-260.76"/>
</g>
<!-- 10 -->
<g id="node11" class="node">
<title>10</title>
<path fill="none" stroke="#56a9d8" stroke-width="2" d="M621,-108C621,-108 546,-108 546,-108 540,-108 534,-102 534,-96 534,-96 534,-84 534,-84 534,-78 540,-72 546,-72 546,-72 621,-72 621,-72 627,-72 633,-78 633,-84 633,-84 633,-96 633,-96 633,-102 627,-108 621,-108"/>
<text text-anchor="middle" x="583.5" y="-87.5" font-family="sans" font-size="10.00">make_supp_data</text>
</g>
<!-- 6&#45;&gt;10 -->
<g id="edge22" class="edge">
<title>6&#45;&gt;10</title>
<path fill="none" stroke="grey" stroke-width="2" d="M435.39,-305.11C477.83,-302.23 536.38,-290.79 568.5,-252 599.65,-214.38 595.39,-153.52 589.46,-118.39"/>
<polygon fill="grey" stroke="grey" stroke-width="2" points="592.86,-117.57 587.6,-108.37 585.98,-118.84 592.86,-117.57"/>
</g>
<!-- 7&#45;&gt;0 -->
<g id="edge4" class="edge">
<title>7&#45;&gt;0</title>
<path fill="none" stroke="grey" stroke-width="2" d="M478.24,-215.85C451.38,-178.28 387.24,-88.58 355.68,-44.43"/>
<polygon fill="grey" stroke="grey" stroke-width="2" points="358.48,-42.33 349.82,-36.23 352.79,-46.4 358.48,-42.33"/>
</g>
<!-- 7&#45;&gt;8 -->
<g id="edge17" class="edge">
<title>7&#45;&gt;8</title>
<path fill="none" stroke="grey" stroke-width="2" d="M532.33,-215.88C555.92,-206.22 585.56,-194.09 610.5,-183.88"/>
<polygon fill="grey" stroke="grey" stroke-width="2" points="611.88,-187.1 619.8,-180.07 609.22,-180.62 611.88,-187.1"/>
</g>
<!-- 8&#45;&gt;0 -->
<g id="edge3" class="edge">
<title>8&#45;&gt;0</title>
<path fill="none" stroke="grey" stroke-width="2" d="M663.06,-143.92C663.88,-123.76 661.85,-90.63 642.5,-72 607.99,-38.78 473.67,-26.13 395.26,-21.51"/>
<polygon fill="grey" stroke="grey" stroke-width="2" points="395.24,-18 385.06,-20.93 394.84,-24.99 395.24,-18"/>
</g>
<!-- 8&#45;&gt;10 -->
<g id="edge21" class="edge">
<title>8&#45;&gt;10</title>
<path fill="none" stroke="grey" stroke-width="2" d="M642.22,-143.7C632.58,-135.05 620.77,-124.45 610.27,-115.03"/>
<polygon fill="grey" stroke="grey" stroke-width="2" points="612.34,-112.18 602.56,-108.1 607.66,-117.39 612.34,-112.18"/>
</g>
<!-- 9&#45;&gt;0 -->
<g id="edge1" class="edge">
<title>9&#45;&gt;0</title>
<path fill="none" stroke="grey" stroke-width="2" d="M364.12,-215.96C363.23,-186.43 360.39,-123.96 351.5,-72 350.02,-63.33 347.78,-54.01 345.53,-45.64"/>
<polygon fill="grey" stroke="grey" stroke-width="2" points="348.9,-44.7 342.82,-36.02 342.16,-46.59 348.9,-44.7"/>
</g>
<!-- 10&#45;&gt;0 -->
<g id="edge8" class="edge">
<title>10&#45;&gt;0</title>
<path fill="none" stroke="grey" stroke-width="2" d="M533.72,-74.83C493.56,-63.41 437.02,-47.32 394.94,-35.35"/>
<polygon fill="grey" stroke="grey" stroke-width="2" points="395.69,-31.92 385.12,-32.55 393.78,-38.65 395.69,-31.92"/>
</g>
</g>
</svg>
